{"title":"[OOTR] Attack On Titan (Season 1 Uncut) Eng Hard Sub Jap Audio m","uid":10637566,"size":8201950511,"categoryP":"video","categoryS":"tv_shows","magnet":"?xt=urn:btih:12c6c312653fd91853a1a5f965364736fb708969&amp;dn=%5BOOTR%5D+Attack+On+Titan+%28Season+1+Uncut%29+Eng+Hard+Sub+Jap+Audio+m&amp;tr=udp%3A%2F%2Ftracker.openbittorrent.com%3A80&amp;tr=udp%3A%2F%2Fopen.demonii.com%3A1337&amp;tr=udp%3A%2F%2Ftracker.coppersurfer.tk%3A6969&amp;tr=udp%3A%2F%2Fexodus.desync.com%3A6969","seeders":4,"leechers":0,"uploader":"OOTR","files":-1,"time":1406409036,"description":"Uncut Season 1 Attack on Titan 720p\n\n\nIntros and credits removed along with commercial break transitions.\n\n\nDownload if you want to binge the entire series in one sitting with seamless transitions between episodes.  \n\nEnglish HARD SUB, Japanese Audio only\n\n\n\n\nFormat                                   : MPEG-4\nFormat profile                           : Base Media / Version 2\nCodec ID                                 : mp42\nFile size                                : 7.64 GiB\nDuration                                 : 8h 5mn\nOverall bit rate mode                    : Variable\nOverall bit rate                         : 2 252 Kbps\n\nVideo\nID                                       : 1\nFormat                                   : AVC\nFormat/Info                              : Advanced Video Codec\nFormat profile                           : &lt;a class=&quot;__cf_email__&quot; href=&quot;/cdn-cgi/l/email-protection&quot; data-cfemail=&quot;1558747c7b5559213b24&quot;&gt;[email&amp;#160;protected]&lt;/a&gt;&lt;script cf-hash='f9e31' type=&quot;text/javascript&quot;&gt;\n/* &lt;![CDATA[ */!function(){try{var t=&quot;currentScript&quot;in document?document.currentScript:function(){for(var t=document.getElementsByTagName(&quot;script&quot;),e=t.length;e--;)if(t[e].getAttribute(&quot;cf-hash&quot;))return t[e]}();if(t&amp;&amp;t.previousSibling){var e,r,n,i,c=t.previousSibling,a=c.getAttribute(&quot;data-cfemail&quot;);if(a){for(e=&quot;&quot;,r=parseInt(a.substr(0,2),16),n=2;a.length-n;n+=2)i=parseInt(a.substr(n,2),16)^r,e+=String.fromCharCode(i);e=document.createTextNode(e),c.parentNode.replaceChild(e,c)}}}catch(u){}}();/* ]]&gt; */&lt;/script&gt;\nFormat settings, CABAC                   : Yes\nFormat settings, ReFrames                : 3 frames\nCodec ID                                 : avc1\nCodec ID/Info                            : Advanced Video Coding\nDuration                                 : 8h 5mn\nSource duration                          : 8h 5mn\nBit rate                                 : 1 995 Kbps\nWidth                                    : 1 280 pixels\nHeight                                   : 720 pixels\nDisplay aspect ratio                     : 16:9\nFrame rate mode                          : Variable\nFrame rate                               : 23.976 fps\nStandard                                 : NTSC\nColor space                              : YUV\nChroma subsampling                       : 4:2:0\nBit depth                                : 8 bits\nScan type                                : Progressive\nBits/(Pixel*Frame)                       : 0.090\nStream size                              : 6.77 GiB (89%)\n\nAudio\nID                                       : 2\nFormat                                   : AAC\nFormat/Info                              : Advanced Audio Codec\nFormat profile                           : LC\nCodec ID                                 : 40\nDuration                                 : 8h 5mn\nBit rate mode                            : Variable\nBit rate                                 : 253 Kbps\nMaximum bit rate                         : 367 Kbps\nChannel(s)                               : 2 channels\nChannel positions                        : Front: L R\nSampling rate                            : 48.0 KHz\nCompression mode                         : Lossy\nStream size                              : 880 MiB (11%)","torrent":{"xt":"urn:btih:12c6c312653fd91853a1a5f965364736fb708969","amp;dn":"%5BOOTR%5D+Attack+On+Titan+%28Season+1+Uncut%29+Eng+Hard+Sub+Jap+Audio+m","amp;tr":["udp%3A%2F%2Ftracker.openbittorrent.com%3A80","udp%3A%2F%2Fopen.demonii.com%3A1337","udp%3A%2F%2Ftracker.coppersurfer.tk%3A6969","udp%3A%2F%2Fexodus.desync.com%3A6969"],"infoHash":"12c6c312653fd91853a1a5f965364736fb708969","infoHashBuffer":{"type":"Buffer","data":[18,198,195,18,101,63,217,24,83,161,165,249,101,54,71,54,251,112,137,105]},"announce":[],"urlList":[]}}